<svg width="28" height="24" viewBox="0 0 28 24" fill="none" xmlns="http://www.w3.org/2000/svg">
<path d="M21.6364 0H6.36366C4.91756 0.00173221 3.53118 0.576962 2.50863 1.59951C1.48608 2.62206 0.910851 4.00844 0.909119 5.45455L0.909119 18.5455C0.910851 19.9916 1.48608 21.3779 2.50863 22.4005C3.53118 23.423 4.91756 23.9983 6.36366 24H21.6364C23.0825 23.9983 24.4689 23.423 25.4914 22.4005C26.514 21.3779 27.0892 19.9916 27.0909 18.5455V5.45455C27.0892 4.00844 26.514 2.62206 25.4914 1.59951C24.4689 0.576962 23.0825 0.00173221 21.6364 0ZM6.36366 2.18182H21.6364C22.5044 2.18182 23.3368 2.52662 23.9506 3.14038C24.5643 3.75413 24.9091 4.58656 24.9091 5.45455V6.54545H3.09094V5.45455C3.09094 4.58656 3.43574 3.75413 4.0495 3.14038C4.66325 2.52662 5.49568 2.18182 6.36366 2.18182ZM21.6364 21.8182H6.36366C5.49568 21.8182 4.66325 21.4734 4.0495 20.8596C3.43574 20.2459 3.09094 19.4134 3.09094 18.5455V8.72727H24.9091V18.5455C24.9091 19.4134 24.5643 20.2459 23.9506 20.8596C23.3368 21.4734 22.5044 21.8182 21.6364 21.8182ZM21.6364 13.0909C21.6364 13.3802 21.5215 13.6577 21.3169 13.8623C21.1123 14.0669 20.8348 14.1818 20.5455 14.1818H7.45457C7.16525 14.1818 6.88777 14.0669 6.68318 13.8623C6.4786 13.6577 6.36366 13.3802 6.36366 13.0909C6.36366 12.8016 6.4786 12.5241 6.68318 12.3195C6.88777 12.1149 7.16525 12 7.45457 12H20.5455C20.8348 12 21.1123 12.1149 21.3169 12.3195C21.5215 12.5241 21.6364 12.8016 21.6364 13.0909ZM17.2728 17.4545C17.2728 17.7439 17.1578 18.0214 16.9532 18.2259C16.7487 18.4305 16.4712 18.5455 16.1818 18.5455H7.45457C7.16525 18.5455 6.88777 18.4305 6.68318 18.2259C6.4786 18.0214 6.36366 17.7439 6.36366 17.4545C6.36366 17.1652 6.4786 16.8877 6.68318 16.6832C6.88777 16.4786 7.16525 16.3636 7.45457 16.3636H16.1818C16.4712 16.3636 16.7487 16.4786 16.9532 16.6832C17.1578 16.8877 17.2728 17.1652 17.2728 17.4545ZM4.18185 4.36364C4.18185 4.14787 4.24583 3.93696 4.3657 3.75756C4.48557 3.57816 4.65594 3.43834 4.85528 3.35577C5.05462 3.2732 5.27397 3.2516 5.48558 3.29369C5.6972 3.33578 5.89158 3.43968 6.04414 3.59225C6.19671 3.74481 6.30061 3.9392 6.3427 4.15081C6.3848 4.36243 6.36319 4.58177 6.28062 4.78111C6.19806 4.98045 6.05823 5.15082 5.87883 5.27069C5.69943 5.39056 5.48852 5.45455 5.27276 5.45455C4.98343 5.45455 4.70595 5.33961 4.50137 5.13503C4.29678 4.93044 4.18185 4.65296 4.18185 4.36364ZM7.45457 4.36364C7.45457 4.14787 7.51855 3.93696 7.63842 3.75756C7.7583 3.57816 7.92867 3.43834 8.12801 3.35577C8.32735 3.2732 8.54669 3.2516 8.75831 3.29369C8.96992 3.33578 9.1643 3.43968 9.31687 3.59225C9.46944 3.74481 9.57334 3.9392 9.61543 4.15081C9.65752 4.36243 9.63592 4.58177 9.55335 4.78111C9.47078 4.98045 9.33096 5.15082 9.15156 5.27069C8.97216 5.39056 8.76124 5.45455 8.54548 5.45455C8.25616 5.45455 7.97868 5.33961 7.77409 5.13503C7.56951 4.93044 7.45457 4.65296 7.45457 4.36364ZM10.7273 4.36364C10.7273 4.14787 10.7913 3.93696 10.9112 3.75756C11.031 3.57816 11.2014 3.43834 11.4007 3.35577C11.6001 3.2732 11.8194 3.2516 12.031 3.29369C12.2427 3.33578 12.437 3.43968 12.5896 3.59225C12.7422 3.74481 12.8461 3.9392 12.8882 4.15081C12.9303 4.36243 12.9086 4.58177 12.8261 4.78111C12.7435 4.98045 12.6037 5.15082 12.4243 5.27069C12.2449 5.39056 12.034 5.45455 11.8182 5.45455C11.5289 5.45455 11.2514 5.33961 11.0468 5.13503C10.8422 4.93044 10.7273 4.65296 10.7273 4.36364Z" fill="#111238"/>
</svg>
