<svg width="24" height="24" viewBox="0 0 24 24" fill="none" xmlns="http://www.w3.org/2000/svg">
<g clip-path="url(#clip0)">
<path d="M22.9 8.95501C22.5689 8.78723 22.1975 8.71554 21.8277 8.74806C21.458 8.78058 21.1047 8.91601 20.808 9.13901L18.975 10.5C18.8495 9.2673 18.2714 8.1249 17.3525 7.2937C16.4336 6.4625 15.2391 6.00157 14 6.00001H13.915L9.793 1.87901C9.51528 1.59935 9.18478 1.37764 8.82068 1.22674C8.45658 1.07585 8.06613 0.998781 7.672 1.00001H1C0.734784 1.00001 0.48043 1.10537 0.292893 1.29291C0.105357 1.48044 0 1.7348 0 2.00001C0 2.26523 0.105357 2.51959 0.292893 2.70712C0.48043 2.89466 0.734784 3.00001 1 3.00001H7.672C7.93706 3.00073 8.19114 3.10602 8.379 3.29301L11.086 6.00001H5C3.67441 6.0016 2.40356 6.5289 1.46622 7.46623C0.528882 8.40357 0.00158786 9.67442 0 11L0 19C0.00158786 20.3256 0.528882 21.5965 1.46622 22.5338C2.40356 23.4711 3.67441 23.9984 5 24H14C15.2391 23.9985 16.4336 23.5375 17.3525 22.7063C18.2714 21.8751 18.8495 20.7327 18.975 19.5L20.805 20.864C21.1021 21.0869 21.4555 21.2226 21.8254 21.2559C22.1953 21.2893 22.5672 21.219 22.8994 21.0529C23.2316 20.8868 23.511 20.6314 23.7063 20.3155C23.9016 19.9995 24.005 19.6354 24.005 19.264V10.743C24.0063 10.3715 23.9034 10.0071 23.7081 9.69104C23.5128 9.375 23.2329 9.12003 22.9 8.95501ZM17 19C17 19.7957 16.6839 20.5587 16.1213 21.1213C15.5587 21.6839 14.7956 22 14 22H5C4.20435 22 3.44129 21.6839 2.87868 21.1213C2.31607 20.5587 2 19.7957 2 19V11C2 10.2044 2.31607 9.4413 2.87868 8.87869C3.44129 8.31608 4.20435 8.00001 5 8.00001H14C14.7956 8.00001 15.5587 8.31608 16.1213 8.87869C16.6839 9.4413 17 10.2044 17 11V19ZM22 19.257L19 17.021V12.979L22 10.743V19.257Z" fill="#111238"/>
</g>
<defs>
<clipPath id="clip0">
<rect width="24" height="24" fill="white"/>
</clipPath>
</defs>
</svg>
