<svg width="24" height="24" viewBox="0 0 24 24" fill="none" xmlns="http://www.w3.org/2000/svg">
<g clip-path="url(#clip0)">
<path d="M18.656 0.930011L6.464 13.122C5.99834 13.5852 5.62918 14.1361 5.37788 14.7429C5.12658 15.3496 4.99814 16.0002 5 16.657V18C5 18.2652 5.10535 18.5196 5.29289 18.7071C5.48043 18.8947 5.73478 19 6 19H7.343C7.99976 19.0019 8.65037 18.8734 9.25715 18.6221C9.86394 18.3708 10.4149 18.0017 10.878 17.536L23.07 5.34401C23.6544 4.75818 23.9826 3.96449 23.9826 3.13701C23.9826 2.30954 23.6544 1.51584 23.07 0.930011C22.4757 0.361905 21.6852 0.0448608 20.863 0.0448608C20.0408 0.0448608 19.2503 0.361905 18.656 0.930011ZM21.656 3.93001L9.464 16.122C8.90012 16.6824 8.138 16.9979 7.343 17H7V16.657C7.00208 15.862 7.31756 15.0999 7.878 14.536L20.07 2.34401C20.2836 2.13997 20.5676 2.0261 20.863 2.0261C21.1584 2.0261 21.4424 2.13997 21.656 2.34401C21.8659 2.55453 21.9838 2.8397 21.9838 3.13701C21.9838 3.43432 21.8659 3.7195 21.656 3.93001Z" fill="#111238"/>
<path d="M23 8.979C22.7348 8.979 22.4804 9.08436 22.2929 9.27189C22.1054 9.45943 22 9.71378 22 9.979V15H18C17.2044 15 16.4413 15.3161 15.8787 15.8787C15.3161 16.4413 15 17.2044 15 18V22H5C4.20435 22 3.44129 21.6839 2.87868 21.1213C2.31607 20.5587 2 19.7956 2 19V5C2 4.20435 2.31607 3.44129 2.87868 2.87868C3.44129 2.31607 4.20435 2 5 2H14.042C14.3072 2 14.5616 1.89464 14.7491 1.70711C14.9366 1.51957 15.042 1.26522 15.042 1C15.042 0.734784 14.9366 0.48043 14.7491 0.292893C14.5616 0.105357 14.3072 0 14.042 0L5 0C3.67441 0.00158786 2.40356 0.528882 1.46622 1.46622C0.528882 2.40356 0.00158786 3.67441 0 5L0 19C0.00158786 20.3256 0.528882 21.5964 1.46622 22.5338C2.40356 23.4711 3.67441 23.9984 5 24H16.343C16.9999 24.0019 17.6507 23.8735 18.2576 23.6222C18.8646 23.3709 19.4157 23.0017 19.879 22.536L22.535 19.878C23.0007 19.4149 23.37 18.864 23.6215 18.2572C23.873 17.6504 24.0016 16.9998 24 16.343V9.979C24 9.71378 23.8946 9.45943 23.7071 9.27189C23.5196 9.08436 23.2652 8.979 23 8.979ZM18.465 21.122C18.063 21.523 17.5547 21.8006 17 21.922V18C17 17.7348 17.1054 17.4804 17.2929 17.2929C17.4804 17.1054 17.7348 17 18 17H21.925C21.8013 17.5535 21.524 18.0609 21.125 18.464L18.465 21.122Z" fill="#111238"/>
</g>
<defs>
<clipPath id="clip0">
<rect width="24" height="24" fill="white"/>
</clipPath>
</defs>
</svg>
