<svg width="24" height="25" viewBox="0 0 24 25" fill="none" xmlns="http://www.w3.org/2000/svg">
<path d="M6.46506 22.2851C6.24647 22.285 6.03393 22.2133 5.85996 22.081C5.68598 21.9486 5.56016 21.7629 5.50174 21.5523C5.44333 21.3417 5.45554 21.1177 5.5365 20.9146C5.61747 20.7116 5.76273 20.5407 5.95006 20.4281C9.49306 18.3001 9.49306 13.7301 9.49306 11.0001C9.49306 10.2044 9.80913 9.44134 10.3717 8.87873C10.9343 8.31612 11.6974 8.00005 12.4931 8.00005C13.2887 8.00005 14.0518 8.31612 14.6144 8.87873C15.177 9.44134 15.4931 10.2044 15.4931 11.0001C15.4931 11.2653 15.3877 11.5196 15.2002 11.7072C15.0126 11.8947 14.7583 12.0001 14.4931 12.0001C14.2278 12.0001 13.9735 11.8947 13.786 11.7072C13.5984 11.5196 13.4931 11.2653 13.4931 11.0001C13.4931 10.7348 13.3877 10.4805 13.2002 10.2929C13.0126 10.1054 12.7583 10.0001 12.4931 10.0001C12.2278 10.0001 11.9735 10.1054 11.786 10.2929C11.5984 10.4805 11.4931 10.7348 11.4931 11.0001C11.4931 13.9471 11.4931 19.4341 6.97906 22.1431C6.82374 22.236 6.64609 22.2851 6.46506 22.2851ZM11.4281 23.7061C13.7101 21.4061 15.0431 18.1721 15.3891 14.0851C15.4007 13.9539 15.3864 13.8218 15.3469 13.6963C15.3074 13.5707 15.2435 13.4542 15.1588 13.3534C15.0742 13.2526 14.9705 13.1695 14.8537 13.1089C14.7368 13.0482 14.6092 13.0112 14.4781 13.0001C14.3468 12.9866 14.2142 12.9997 14.0882 13.0385C13.9621 13.0774 13.8452 13.1412 13.7443 13.2262C13.6434 13.3113 13.5607 13.4157 13.5011 13.5333C13.4414 13.651 13.406 13.7794 13.3971 13.9111C13.0861 17.5681 11.9781 20.3111 10.0091 22.2921C9.82208 22.4802 9.71751 22.735 9.71836 23.0002C9.7192 23.2655 9.82539 23.5196 10.0136 23.7066C10.2017 23.8935 10.4565 23.9981 10.7217 23.9973C10.987 23.9964 11.2411 23.8902 11.4281 23.7021V23.7061ZM16.6281 23.5201C17.2346 22.5122 17.7398 21.4466 18.1361 20.3391C18.2189 20.0913 18.2015 19.821 18.0877 19.586C17.9738 19.3509 17.7725 19.1697 17.5268 19.0811C17.2811 18.9926 17.0104 19.0037 16.7728 19.112C16.5351 19.2204 16.3493 19.4175 16.2551 19.6611C15.903 20.6431 15.4548 21.588 14.9171 22.4821C14.8489 22.5944 14.8035 22.7191 14.7836 22.8489C14.7636 22.9788 14.7694 23.1114 14.8006 23.239C14.8319 23.3666 14.888 23.4869 14.9657 23.5928C15.0434 23.6988 15.1412 23.7884 15.2536 23.8566C15.4804 23.9942 15.7527 24.0361 16.0105 23.973C16.1381 23.9417 16.2584 23.8856 16.3643 23.8079C16.4703 23.7302 16.5599 23.6324 16.6281 23.5201ZM18.9931 17.1911C19.3635 15.1489 19.531 13.0752 19.4931 11.0001C19.4921 9.58335 19.0613 8.20028 18.2576 7.03361C17.4539 5.86694 16.3151 4.9716 14.9918 4.46589C13.6684 3.96019 12.2227 3.86793 10.8458 4.20131C9.4689 4.53469 8.22554 5.27801 7.28006 6.33305C7.18798 6.43005 7.11629 6.54454 7.06924 6.66974C7.02219 6.79494 7.00074 6.92831 7.00614 7.06194C7.01155 7.19558 7.04371 7.32678 7.10072 7.44777C7.15773 7.56876 7.23843 7.67708 7.33805 7.76633C7.43766 7.85557 7.55417 7.92393 7.68068 7.96735C7.80718 8.01077 7.94111 8.02838 8.07453 8.01912C8.20796 8.00986 8.33818 7.97394 8.45747 7.91346C8.57677 7.85299 8.68272 7.7692 8.76906 7.66705C9.44434 6.91333 10.3324 6.38226 11.316 6.14402C12.2995 5.90578 13.3322 5.97159 14.2775 6.33276C15.2228 6.69392 16.0363 7.33344 16.6105 8.16678C17.1846 9.00013 17.4924 9.98807 17.4931 11.0001C17.5299 12.9469 17.3752 14.8926 17.0311 16.8091C16.9806 17.0692 17.0354 17.3388 17.1835 17.5585C17.3317 17.7783 17.561 17.9303 17.8211 17.9811C17.8846 17.9938 17.9493 18.0001 18.0141 18.0001C18.2457 17.9995 18.4699 17.9185 18.6485 17.7709C18.827 17.6234 18.9488 17.4184 18.9931 17.1911ZM7.49306 11.0001C7.49277 10.7209 7.51585 10.4423 7.56206 10.1671C7.59192 10.0345 7.59447 9.89734 7.56955 9.76381C7.54464 9.63028 7.49278 9.50322 7.41714 9.3904C7.34151 9.27757 7.24368 9.18133 7.12962 9.10756C7.01557 9.03379 6.88768 8.98403 6.75376 8.96131C6.61984 8.93859 6.48269 8.9434 6.35069 8.97543C6.21869 9.00746 6.09459 9.06606 5.98598 9.14763C5.87737 9.2292 5.78651 9.33205 5.71896 9.44989C5.6514 9.56773 5.60857 9.69811 5.59306 9.83305C5.52704 10.2186 5.49359 10.6089 5.49306 11.0001C5.49306 15.6451 4.14706 18.0001 1.49306 18.0001C1.22784 18.0001 0.973487 18.1054 0.78595 18.2929C0.598414 18.4805 0.493057 18.7348 0.493057 19.0001C0.493057 19.2653 0.598414 19.5196 0.78595 19.7072C0.973487 19.8947 1.22784 20.0001 1.49306 20.0001C5.36206 20.0001 7.49306 16.8001 7.49306 11.0001ZM21.1931 23.4141C22.8387 19.4882 23.6231 15.2549 23.4931 11.0001C23.4977 9.33897 23.1214 7.69896 22.3931 6.20605C22.3356 6.08786 22.2554 5.98215 22.1571 5.89494C22.0588 5.80773 21.9443 5.74074 21.8201 5.6978C21.6959 5.65485 21.5645 5.63678 21.4333 5.64464C21.3021 5.65249 21.1737 5.6861 21.0556 5.74355C20.9374 5.801 20.8317 5.88117 20.7444 5.97948C20.6572 6.07779 20.5903 6.19232 20.5473 6.31651C20.5044 6.44071 20.4863 6.57215 20.4941 6.70333C20.502 6.83451 20.5356 6.96286 20.5931 7.08105C21.1881 8.30162 21.496 9.64217 21.4931 11.0001C21.6189 14.9688 20.8965 18.9188 19.3741 22.5861C19.3199 22.7058 19.2898 22.8351 19.2856 22.9664C19.2814 23.0978 19.3031 23.2287 19.3496 23.3517C19.396 23.4747 19.4662 23.5873 19.5562 23.6831C19.6462 23.7789 19.7542 23.856 19.8741 23.9101C20.0036 23.9696 20.1445 24.0003 20.2871 24.0001C20.4783 23.9992 20.6653 23.9436 20.8259 23.8397C20.9865 23.7359 21.1139 23.5881 21.1931 23.4141ZM3.49306 14.0001V11.0001C3.4957 8.61392 4.44477 6.32627 6.13202 4.63901C7.81927 2.95176 10.1069 2.0027 12.4931 2.00005C14.4414 1.99356 16.3382 2.62583 17.8931 3.80005C18.1052 3.95918 18.3719 4.02751 18.6345 3.99C18.897 3.95249 19.1339 3.81222 19.2931 3.60005C19.4522 3.38788 19.5205 3.12118 19.483 2.85863C19.4455 2.59608 19.3052 2.35918 19.0931 2.20005C17.1924 0.765473 14.8743 -0.0072348 12.4931 5.10545e-05C9.57673 0.00349153 6.78084 1.16352 4.71868 3.22568C2.65653 5.28783 1.4965 8.08373 1.49306 11.0001V14.0001C1.49306 14.2653 1.59841 14.5196 1.78595 14.7072C1.97349 14.8947 2.22784 15.0001 2.49306 15.0001C2.75827 15.0001 3.01263 14.8947 3.20016 14.7072C3.3877 14.5196 3.49306 14.2653 3.49306 14.0001Z" fill="#111238"/>
</svg>
