<svg width="30" height="30" viewBox="0 0 30 30" fill="none" xmlns="http://www.w3.org/2000/svg">
<g clip-path="url(#clip0)">
<path d="M28.8917 0.0312347C28.8831 0.0335785 28.8744 0.0356879 28.8658 0.038266C28.8637 0.0389105 28.8615 0.0393793 28.8594 0.0400238L0.618751 8.80413C0.25131 8.91821 0.000645777 9.25782 1.24586e-06 9.6426C-0.000643285 10.0274 0.248849 10.3678 0.615997 10.4831L11.5054 13.902L9.44848 19.4203C9.32824 19.7429 9.40729 20.1059 9.65068 20.3493C9.89449 20.5931 10.2577 20.6716 10.5797 20.5515L16.0979 18.4947L19.517 29.3841C19.6321 29.7507 19.9719 30.0001 20.3561 30.0001C20.3565 30.0001 20.3571 30.0001 20.3575 30.0001C20.7422 29.9994 21.0819 29.7488 21.1959 29.3813L29.9599 1.14053C29.9605 1.13836 29.961 1.13614 29.9617 1.13397C29.9642 1.12553 29.9663 1.11704 29.9686 1.1086C30.1463 0.45018 29.5407 -0.143843 28.8917 0.0312347ZM3.83063 9.64893L24.5867 3.20754L12.4839 12.3659L3.83063 9.64893ZM11.7686 18.2313L13.3877 13.8875L24.5871 5.41284L16.1123 16.6122L11.7686 18.2313ZM20.351 26.1693L17.634 17.5159L26.7923 5.41319L20.351 26.1693Z" fill="#0F1138"/>
<path d="M6.9873 18.0385C6.64394 17.6951 6.08713 17.6951 5.74365 18.0385L0.467341 23.3148C0.123923 23.6582 0.123923 24.215 0.467341 24.5585C0.810701 24.9019 1.36752 24.9019 1.71099 24.5585L6.9873 19.2822C7.33072 18.9387 7.33072 18.3819 6.9873 18.0385Z" fill="#1A75E8"/>
<path d="M11.9614 23.0125C11.6179 22.669 11.0611 22.669 10.7177 23.0125L5.4414 28.2888C5.09798 28.6322 5.09798 29.189 5.4414 29.5325C5.78476 29.8759 6.34164 29.8759 6.68505 29.5325L11.9614 24.2562C12.3048 23.9128 12.3048 23.356 11.9614 23.0125Z" fill="#1A75E8"/>
<path d="M7.71555 22.2843C7.37219 21.9409 6.81538 21.9409 6.4719 22.2843L0.257563 28.4986C-0.0858545 28.8421 -0.0858545 29.3988 0.257563 29.7423C0.600923 30.0857 1.1578 30.0857 1.50122 29.7423L7.71555 23.5279C8.05897 23.1845 8.05897 22.6277 7.71555 22.2843Z" fill="#1A75E8"/>
</g>
<defs>
<clipPath id="clip0">
<rect width="30" height="30" fill="white"/>
</clipPath>
</defs>
</svg>
